999
D:\1working\free3ddxf\chair\a3dchair.dxf
999
Converted by PolyTrans from Okino Computer Graphics, Inc.
999
Export options: Layer names derived from object names, Uses 3D FACE entity, Forced triangulation.
0
SECTION
2
HEADER
9
$ACADVER
1
AC1008
9
$UCSORG
10
0.0
20
0.0
30
0.0
9
$UCSXDIR
10
1
20
0.0
30
0.0
9
$TILEMODE
70
1
9
$UCSYDIR
10
0.0
20
0.0
30
1
9
$EXTMIN
10
-17.1376
20
15.4156
30
-0.0251104
9
$EXTMAX
10
11.5418
20
-13.2638
30
38.7431
0
ENDSEC
0
SECTION
2
TABLES
0
TABLE
2
LTYPE
70
1
0
LTYPE
2
SOLIDLINE
70
64
3
Solid line
72
65
73
0
40
0.0
0
ENDTAB
0
TABLE
2
LAYER
70
3
0
LAYER
2
dchrblk
70
0
62
49
6
SOLIDLINE
0
LAYER
2
dchrfab
70
0
62
17
6
SOLIDLINE
0
LAYER
2
dchrsilv
70
0
62
251
6
SOLIDLINE
0
ENDTAB
0
ENDSEC
0
SECTION
2
ENTITIES
0
3DFACE
8
dchrblk
62
49
10
8.5973
20
3.38393
30
24.265
11
1.13502
21
10.8462
31
24.265
12
3.13384
22
12.845
32
24.265
13
3.13384
23
12.845
33
24.265
0
3DFACE
8
dchrblk
62
49
10
3.13384
20
12.845
30
24.265
11
10.5961
21
5.38276
31
24.265
12
8.5973
22
3.38393
32
24.265
13
8.5973
23
3.38393
33
24.265
0
3DFACE
8
dchrblk
62
49
10
8.5973
20
3.38393
30
25.6203
11
10.5961
21
5.38276
31
25.6203
12
3.13384
22
12.845
32
25.6203
13
3.13384
23
12.845
33
25.6203
0
3DFACE
8
dchrblk
62
49
10
3.13384
20
12.845
30
25.6203
11
1.13502
21
10.8462
31
25.6203
12
8.5973
22
3.38393
32
25.6203
13
8.5973
23
3.38393
33
25.6203
0
3DFACE
8
dchrblk
62
49
10
8.5973
20
3.38393
30
24.265
11
10.5961
21
5.38276
31
24.265
12
10.5961
22
5.38276
32
25.6203
13
10.5961
23
5.38276
33
25.6203
0
3DFACE
8
dchrblk
62
49
10
10.5961
20
5.38276
30
25.6203
11
8.5973
21
3.38393
31
25.6203
12
8.5973
22
3.38393
32
24.265
13
8.5973
23
3.38393
33
24.265
0
3DFACE
8
dchrblk
62
49
10
10.5961
20
5.38276
30
24.265
11
3.13384
21
12.845
31
24.265
12
3.13384
22
12.845
32
25.6203
13
3.13384
23
12.845
33
25.6203
0
3DFACE
8
dchrblk
62
49
10
3.13384
20
12.845
30
25.6203
11
10.5961
21
5.38276
31
25.6203
12
10.5961
22
5.38276
32
24.265
13
10.5961
23
5.38276
33
24.265
0
3DFACE
8
dchrblk
62
49
10
3.13384
20
12.845
30
24.265
11
1.13502
21
10.8462
31
24.265
12
1.13502
22
10.8462
32
25.6203
13
1.13502
23
10.8462
33
25.6203
0
3DFACE
8
dchrblk
62
49
10
1.13502
20
10.8462
30
25.6203
11
3.13384
21
12.845
31
25.6203
12
3.13384
22
12.845
32
24.265
13
3.13384
23
12.845
33
24.265
0
3DFACE
8
dchrblk
62
49
10
1.13502
20
10.8462
30
24.265
11
8.5973
21
3.38393
31
24.265
12
8.5973
22
3.38393
32
25.6203
13
8.5973
23
3.38393
33
25.6203
0
3DFACE
8
dchrblk
62
49
10
8.5973
20
3.38393
30
25.6203
11
1.13502
21
10.8462
31
25.6203
12
1.13502
22
10.8462
32
24.265
13
1.13502
23
10.8462
33
24.265
0
3DFACE
8
dchrblk
62
49
10
-6.51937
20
-11.3263
30
0.00479826
11
-1.20903
21
-1.87186
31
3.79602
12
-1.20903
22
-1.87186
32
5.29602
13
-1.20903
23
-1.87186
33
5.29602
0
3DFACE
8
dchrblk
62
49
10
-6.51937
20
-11.3263
30
0.00479826
11
-1.20903
21
-1.87186
31
5.29602
12
-6.51937
22
-11.3263
32
0.844238
13
-6.51937
23
-11.3263
33
0.844238
0
3DFACE
8
dchrblk
62
49
10
-1.20903
20
-1.87186
30
3.79602
11
6.74169
21
-9.25807
31
-0.0251104
12
6.74169
22
-9.25807
32
0.814329
13
6.74169
23
-9.25807
33
0.814329
0
3DFACE
8
dchrblk
62
49
10
-1.20903
20
-1.87186
30
3.79602
11
6.74169
21
-9.25807
31
0.814329
12
-1.20903
22
-1.87186
32
5.29602
13
-1.20903
23
-1.87186
33
5.29602
0
3DFACE
8
dchrblk
62
49
10
6.74169
20
-9.25807
30
-0.0251104
11
7.99886
21
-8.00091
31
-0.0251104
12
7.99886
22
-8.00091
32
0.814329
13
7.99886
23
-8.00091
33
0.814329
0
3DFACE
8
dchrblk
62
49
10
6.74169
20
-9.25807
30
-0.0251104
11
7.99886
21
-8.00091
31
0.814329
12
6.74169
22
-9.25807
32
0.814329
13
6.74169
23
-9.25807
33
0.814329
0
3DFACE
8
dchrblk
62
49
10
7.99886
20
-8.00091
30
-0.0251104
11
0.28981
21
0.0330862
31
3.79602
12
0.28981
22
0.0330861
32
5.29602
13
0.28981
23
0.0330861
33
5.29602
0
3DFACE
8
dchrblk
62
49
10
7.99886
20
-8.00091
30
-0.0251104
11
0.28981
21
0.0330861
31
5.29602
12
7.99886
22
-8.00091
32
0.814329
13
7.99886
23
-8.00091
33
0.814329
0
3DFACE
8
dchrblk
62
49
10
0.28981
20
0.0330862
30
3.79602
11
10.1482
21
5.34126
31
0.00479899
12
10.1482
22
5.34126
32
0.844238
13
10.1482
23
5.34126
33
0.844238
0
3DFACE
8
dchrblk
62
49
10
0.28981
20
0.0330862
30
3.79602
11
10.1482
21
5.34126
31
0.844238
12
0.28981
22
0.0330861
32
5.29602
13
0.28981
23
0.0330861
33
5.29602
0
3DFACE
8
dchrblk
62
49
10
10.1482
20
5.34126
30
0.00479899
11
9.33713
21
6.96341
31
0.00479898
12
9.33713
22
6.96341
32
0.844238
13
9.33713
23
6.96341
33
0.844238
0
3DFACE
8
dchrblk
62
49
10
10.1482
20
5.34126
30
0.00479899
11
9.33713
21
6.96341
31
0.844238
12
10.1482
22
5.34126
32
0.844238
13
10.1482
23
5.34126
33
0.844238
0
3DFACE
8
dchrblk
62
49
10
9.33713
20
6.96341
30
0.00479898
11
-0.641332
21
2.09847
31
3.79602
12
-0.641332
22
2.09847
32
5.29602
13
-0.641332
23
2.09847
33
5.29602
0
3DFACE
8
dchrblk
62
49
10
9.33713
20
6.96341
30
0.00479898
11
-0.641332
21
2.09847
31
5.29602
12
9.33713
22
6.96341
32
0.844238
13
9.33713
23
6.96341
33
0.844238
0
3DFACE
8
dchrblk
62
49
10
-0.641332
20
2.09847
30
3.79602
11
-2.58566
21
13.0465
31
0.00479869
12
-2.58566
22
13.0465
32
0.844238
13
-2.58566
23
13.0465
33
0.844238
0
3DFACE
8
dchrblk
62
49
10
-0.641332
20
2.09847
30
3.79602
11
-2.58566
21
13.0465
31
0.844238
12
-0.641332
22
2.09847
32
5.29602
13
-0.641332
23
2.09847
33
5.29602
0
3DFACE
8
dchrblk
62
49
10
-2.58566
20
13.0465
30
0.00479869
11
-4.41058
21
12.7626
31
0.00479863
12
-4.41058
22
12.7626
32
0.844238
13
-4.41058
23
12.7626
33
0.844238
0
3DFACE
8
dchrblk
62
49
10
-2.58566
20
13.0465
30
0.00479869
11
-4.41058
21
12.7626
31
0.844238
12
-2.58566
22
13.0465
32
0.844238
13
-2.58566
23
13.0465
33
0.844238
0
3DFACE
8
dchrblk
62
49
10
-4.41058
20
12.7626
30
0.00479863
11
-3.0314
21
1.73351
31
3.79602
12
-3.0314
22
1.73351
32
5.29602
13
-3.0314
23
1.73351
33
5.29602
0
3DFACE
8
dchrblk
62
49
10
-4.41058
20
12.7626
30
0.00479863
11
-3.0314
21
1.73351
31
5.29602
12
-4.41058
22
12.7626
32
0.844238
13
-4.41058
23
12.7626
33
0.844238
0
3DFACE
8
dchrblk
62
49
10
-3.0314
20
1.73351
30
3.79602
11
-13.9001
21
3.19191
31
0.00479822
12
-13.9001
22
3.19191
32
0.844238
13
-13.9001
23
3.19191
33
0.844238
0
3DFACE
8
dchrblk
62
49
10
-3.0314
20
1.73351
30
3.79602
11
-13.9001
21
3.19191
31
0.844238
12
-3.0314
22
1.73351
32
5.29602
13
-3.0314
23
1.73351
33
5.29602
0
3DFACE
8
dchrblk
62
49
10
-13.9001
20
3.19191
30
0.00479822
11
-14.184
21
1.44811
31
0.00479818
12
-14.184
22
1.44811
32
0.844238
13
-14.184
23
1.44811
33
0.844238
0
3DFACE
8
dchrblk
62
49
10
-13.9001
20
3.19191
30
0.00479822
11
-14.184
21
1.44811
31
0.844238
12
-13.9001
22
3.19191
32
0.844238
13
-13.9001
23
3.19191
33
0.844238
0
3DFACE
8
dchrblk
62
49
10
-14.184
20
1.44811
30
0.00479818
11
-3.39641
21
-0.656607
31
3.79602
12
-3.39641
22
-0.656607
32
5.29602
13
-3.39641
23
-0.656607
33
5.29602
0
3DFACE
8
dchrblk
62
49
10
-14.184
20
1.44811
30
0.00479818
11
-3.39641
21
-0.656607
31
5.29602
12
-14.184
22
1.44811
32
0.844238
13
-14.184
23
1.44811
33
0.844238
0
3DFACE
8
dchrblk
62
49
10
-3.39641
20
-0.656607
30
3.79602
11
-8.14152
21
-10.4341
31
0.00479822
12
-8.14152
22
-10.4341
32
0.844238
13
-8.14152
23
-10.4341
33
0.844238
0
3DFACE
8
dchrblk
62
49
10
-3.39641
20
-0.656607
30
3.79602
11
-8.14152
21
-10.4341
31
0.844238
12
-3.39641
22
-0.656607
32
5.29602
13
-3.39641
23
-0.656607
33
5.29602
0
3DFACE
8
dchrblk
62
49
10
-8.14152
20
-10.4341
30
0.00479822
11
-6.51937
21
-11.3263
31
0.00479826
12
-6.51937
22
-11.3263
32
0.844238
13
-6.51937
23
-11.3263
33
0.844238
0
3DFACE
8
dchrblk
62
49
10
-8.14152
20
-10.4341
30
0.00479822
11
-6.51937
21
-11.3263
31
0.844238
12
-8.14152
22
-10.4341
32
0.844238
13
-8.14152
23
-10.4341
33
0.844238
0
3DFACE
8
dchrblk
62
49
10
-8.14152
20
-10.4341
30
0.00479822
11
-1.20903
21
-1.87186
31
3.79602
12
-6.51937
22
-11.3263
32
0.00479826
13
-6.51937
23
-11.3263
33
0.00479826
0
3DFACE
8
dchrblk
62
49
10
-3.39641
20
-0.656607
30
3.79602
11
-1.20903
21
-1.87186
31
3.79602
12
-8.14152
22
-10.4341
32
0.00479822
13
-8.14152
23
-10.4341
33
0.00479822
0
3DFACE
8
dchrblk
62
49
10
10.1482
20
5.34126
30
0.00479899
11
-0.641332
21
2.09847
31
3.79602
12
9.33713
22
6.96341
32
0.00479898
13
9.33713
23
6.96341
33
0.00479898
0
3DFACE
8
dchrblk
62
49
10
0.28981
20
0.0330862
30
3.79602
11
-0.641332
21
2.09847
31
3.79602
12
10.1482
22
5.34126
32
0.00479899
13
10.1482
23
5.34126
33
0.00479899
0
3DFACE
8
dchrblk
62
49
10
6.74169
20
-9.25807
30
-0.0251104
11
0.28981
21
0.0330862
31
3.79602
12
7.99886
22
-8.00091
32
-0.0251104
13
7.99886
23
-8.00091
33
-0.0251104
0
3DFACE
8
dchrblk
62
49
10
-1.20903
20
-1.87186
30
3.79602
11
0.28981
21
0.0330862
31
3.79602
12
6.74169
22
-9.25807
32
-0.0251104
13
6.74169
23
-9.25807
33
-0.0251104
0
3DFACE
8
dchrblk
62
49
10
-0.641332
20
2.09847
30
3.79602
11
-4.41058
21
12.7626
31
0.00479863
12
-2.58566
22
13.0465
32
0.00479869
13
-2.58566
23
13.0465
33
0.00479869
0
3DFACE
8
dchrblk
62
49
10
-0.641332
20
2.09847
30
3.79602
11
-3.0314
21
1.73351
31
3.79602
12
-4.41058
22
12.7626
32
0.00479863
13
-4.41058
23
12.7626
33
0.00479863
0
3DFACE
8
dchrblk
62
49
10
-3.0314
20
1.73351
30
3.79602
11
-14.184
21
1.44811
31
0.00479818
12
-13.9001
22
3.19191
32
0.00479822
13
-13.9001
23
3.19191
33
0.00479822
0
3DFACE
8
dchrblk
62
49
10
-3.0314
20
1.73351
30
3.79602
11
-3.39641
21
-0.656607
31
3.79602
12
-14.184
22
1.44811
32
0.00479818
13
-14.184
23
1.44811
33
0.00479818
0
3DFACE
8
dchrblk
62
49
10
-3.39641
20
-0.656607
30
3.79602
11
0.28981
21
0.0330862
31
3.79602
12
-1.20903
22
-1.87186
32
3.79602
13
-1.20903
23
-1.87186
33
3.79602
0
3DFACE
8
dchrblk
62
49
10
-3.0314
20
1.73351
30
3.79602
11
0.28981
21
0.0330862
31
3.79602
12
-3.39641
22
-0.656607
32
3.79602
13
-3.39641
23
-0.656607
33
3.79602
0
3DFACE
8
dchrblk
62
49
10
-0.641332
20
2.09847
30
3.79602
11
0.28981
21
0.0330862
31
3.79602
12
-3.0314
22
1.73351
32
3.79602
13
-3.0314
23
1.73351
33
3.79602
0
3DFACE
8
dchrblk
62
49
10
-8.14152
20
-10.4341
30
0.844238
11
-6.51937
21
-11.3263
31
0.844238
12
-1.20903
22
-1.87186
32
5.29602
13
-1.20903
23
-1.87186
33
5.29602
0
3DFACE
8
dchrblk
62
49
10
-3.39641
20
-0.656607
30
5.29602
11
-8.14152
21
-10.4341
31
0.844238
12
-1.20903
22
-1.87186
32
5.29602
13
-1.20903
23
-1.87186
33
5.29602
0
3DFACE
8
dchrblk
62
49
10
10.1482
20
5.34126
30
0.844238
11
9.33713
21
6.96341
31
0.844238
12
-0.641332
22
2.09847
32
5.29602
13
-0.641332
23
2.09847
33
5.29602
0
3DFACE
8
dchrblk
62
49
10
0.28981
20
0.0330861
30
5.29602
11
10.1482
21
5.34126
31
0.844238
12
-0.641332
22
2.09847
32
5.29602
13
-0.641332
23
2.09847
33
5.29602
0
3DFACE
8
dchrblk
62
49
10
6.74169
20
-9.25807
30
0.814329
11
7.99886
21
-8.00091
31
0.814329
12
0.28981
22
0.0330861
32
5.29602
13
0.28981
23
0.0330861
33
5.29602
0
3DFACE
8
dchrblk
62
49
10
-1.20903
20
-1.87186
30
5.29602
11
6.74169
21
-9.25807
31
0.814329
12
0.28981
22
0.0330861
32
5.29602
13
0.28981
23
0.0330861
33
5.29602
0
3DFACE
8
dchrblk
62
49
10
-0.641332
20
2.09847
30
5.29602
11
-2.58566
21
13.0465
31
0.844238
12
-4.41058
22
12.7626
32
0.844238
13
-4.41058
23
12.7626
33
0.844238
0
3DFACE
8
dchrblk
62
49
10
-0.641332
20
2.09847
30
5.29602
11
-4.41058
21
12.7626
31
0.844238
12
-3.0314
22
1.73351
32
5.29602
13
-3.0314
23
1.73351
33
5.29602
0
3DFACE
8
dchrblk
62
49
10
-3.0314
20
1.73351
30
5.29602
11
-13.9001
21
3.19191
31
0.844238
12
-14.184
22
1.44811
32
0.844238
13
-14.184
23
1.44811
33
0.844238
0
3DFACE
8
dchrblk
62
49
10
-3.0314
20
1.73351
30
5.29602
11
-14.184
21
1.44811
31
0.844238
12
-3.39641
22
-0.656607
32
5.29602
13
-3.39641
23
-0.656607
33
5.29602
0
3DFACE
8
dchrblk
62
49
10
-3.39641
20
-0.656607
30
5.29602
11
-1.20903
21
-1.87186
31
5.29602
12
0.28981
22
0.0330861
32
5.29602
13
0.28981
23
0.0330861
33
5.29602
0
3DFACE
8
dchrblk
62
49
10
-3.0314
20
1.73351
30
5.29602
11
-3.39641
21
-0.656607
31
5.29602
12
0.28981
22
0.0330861
32
5.29602
13
0.28981
23
0.0330861
33
5.29602
0
3DFACE
8
dchrblk
62
49
10
-0.641332
20
2.09847
30
5.29602
11
-3.0314
21
1.73351
31
5.29602
12
0.28981
22
0.0330861
32
5.29602
13
0.28981
23
0.0330861
33
5.29602
0
3DFACE
8
dchrblk
62
49
10
-7.25154
20
-12.4649
30
24.265
11
-14.7138
21
-5.00259
31
24.265
12
-12.715
22
-3.00377
32
24.265
13
-12.715
23
-3.00377
33
24.265
0
3DFACE
8
dchrblk
62
49
10
-12.715
20
-3.00377
30
24.265
11
-5.25272
21
-10.466
31
24.265
12
-7.25154
22
-12.4649
32
24.265
13
-7.25154
23
-12.4649
33
24.265
0
3DFACE
8
dchrblk
62
49
10
-7.25154
20
-12.4649
30
25.6203
11
-5.25272
21
-10.466
31
25.6203
12
-12.715
22
-3.00377
32
25.6203
13
-12.715
23
-3.00377
33
25.6203
0
3DFACE
8
dchrblk
62
49
10
-12.715
20
-3.00377
30
25.6203
11
-14.7138
21
-5.00259
31
25.6203
12
-7.25154
22
-12.4649
32
25.6203
13
-7.25154
23
-12.4649
33
25.6203
0
3DFACE
8
dchrblk
62
49
10
-7.25154
20
-12.4649
30
24.265
11
-5.25272
21
-10.466
31
24.265
12
-5.25272
22
-10.466
32
25.6203
13
-5.25272
23
-10.466
33
25.6203
0
3DFACE
8
dchrblk
62
49
10
-5.25272
20
-10.466
30
25.6203
11
-7.25154
21
-12.4649
31
25.6203
12
-7.25154
22
-12.4649
32
24.265
13
-7.25154
23
-12.4649
33
24.265
0
3DFACE
8
dchrblk
62
49
10
-5.25272
20
-10.466
30
24.265
11
-12.715
21
-3.00377
31
24.265
12
-12.715
22
-3.00377
32
25.6203
13
-12.715
23
-3.00377
33
25.6203
0
3DFACE
8
dchrblk
62
49
10
-12.715
20
-3.00377
30
25.6203
11
-5.25272
21
-10.466
31
25.6203
12
-5.25272
22
-10.466
32
24.265
13
-5.25272
23
-10.466
33
24.265
0
3DFACE
8
dchrblk
62
49
10
-12.715
20
-3.00377
30
24.265
11
-14.7138
21
-5.00259
31
24.265
12
-14.7138
22
-5.00259
32
25.6203
13
-14.7138
23
-5.00259
33
25.6203
0
3DFACE
8
dchrblk
62
49
10
-14.7138
20
-5.00259
30
25.6203
11
-12.715
21
-3.00377
31
25.6203
12
-12.715
22
-3.00377
32
24.265
13
-12.715
23
-3.00377
33
24.265
0
3DFACE
8
dchrblk
62
49
10
-14.7138
20
-5.00259
30
24.265
11
-7.25154
21
-12.4649
31
24.265
12
-7.25154
22
-12.4649
32
25.6203
13
-7.25154
23
-12.4649
33
25.6203
0
3DFACE
8
dchrblk
62
49
10
-7.25154
20
-12.4649
30
25.6203
11
-14.7138
21
-5.00259
31
25.6203
12
-14.7138
22
-5.00259
32
24.265
13
-14.7138
23
-5.00259
33
24.265
0
3DFACE
8
dchrblk
62
49
10
-0.605212
20
1.2
30
5.28946
11
-2.79876
21
0.612238
31
5.28946
12
-2.79876
22
0.612238
32
15.3101
13
-2.79876
23
0.612238
33
15.3101
0
3DFACE
8
dchrblk
62
49
10
-0.605212
20
1.2
30
5.28946
11
-2.79876
21
0.612238
31
15.3101
12
-0.605213
22
1.2
32
15.3101
13
-0.605213
23
1.2
33
15.3101
0
3DFACE
8
dchrblk
62
49
10
-2.79876
20
0.612238
30
5.28946
11
-1.19297
21
-0.993548
31
5.28946
12
-1.19297
22
-0.993548
32
15.3101
13
-1.19297
23
-0.993548
33
15.3101
0
3DFACE
8
dchrblk
62
49
10
-2.79876
20
0.612238
30
5.28946
11
-1.19297
21
-0.993548
31
15.3101
12
-2.79876
22
0.612238
32
15.3101
13
-2.79876
23
0.612238
33
15.3101
0
3DFACE
8
dchrblk
62
49
10
-1.19297
20
-0.993548
30
5.28946
11
-0.605212
21
1.2
31
5.28946
12
-0.605213
22
1.2
32
15.3101
13
-0.605213
23
1.2
33
15.3101
0
3DFACE
8
dchrblk
62
49
10
-1.19297
20
-0.993548
30
5.28946
11
-0.605213
21
1.2
31
15.3101
12
-1.19297
22
-0.993548
32
15.3101
13
-1.19297
23
-0.993548
33
15.3101
0
3DFACE
8
dchrfab
62
17
10
-13.6567
20
1.37929
30
18.2384
11
-16.4553
21
1.54673
31
25.1357
12
-3.26871
22
14.7333
32
25.1357
13
-3.26871
23
14.7333
33
25.1357
0
3DFACE
8
dchrfab
62
17
10
-3.26871
20
14.7333
30
25.1357
11
-3.10127
21
11.9347
31
18.2384
12
-13.6567
22
1.37929
32
18.2384
13
-13.6567
23
1.37929
33
18.2384
0
3DFACE
8
dchrfab
62
17
10
-16.4553
20
1.54673
30
25.1357
11
-17.1376
21
2.56146
31
31.7271
12
-4.28345
22
15.4156
32
31.7271
13
-4.28345
23
15.4156
33
31.7271
0
3DFACE
8
dchrfab
62
17
10
-4.28345
20
15.4156
30
31.7271
11
-3.26871
21
14.7333
31
25.1357
12
-16.4553
22
1.54673
32
25.1357
13
-16.4553
23
1.54673
33
25.1357
0
3DFACE
8
dchrfab
62
17
10
-17.1376
20
2.56146
30
31.7271
11
-13.9022
21
5.32081
31
38.2544
12
-7.04279
22
12.1802
32
38.2544
13
-7.04279
23
12.1802
33
38.2544
0
3DFACE
8
dchrfab
62
17
10
-7.04279
20
12.1802
30
38.2544
11
-4.28345
21
15.4156
31
31.7271
12
-17.1376
22
2.56146
32
31.7271
13
-17.1376
23
2.56146
33
31.7271
0
3DFACE
8
dchrfab
62
17
10
-10.7402
20
-0.517859
30
18.5269
11
-1.20413
21
9.01825
31
18.5269
12
-1.51261
22
11.9867
32
25.7442
13
-1.51261
23
11.9867
33
25.7442
0
3DFACE
8
dchrfab
62
17
10
-1.51261
20
11.9867
30
25.7442
11
-13.7086
21
-0.209376
31
25.7442
12
-10.7402
22
-0.517859
32
18.5269
13
-10.7402
23
-0.517859
33
18.5269
0
3DFACE
8
dchrfab
62
17
10
-13.7086
20
-0.209376
30
25.7442
11
-1.51261
21
11.9867
31
25.7442
12
-2.71089
22
12.8525
32
32.3202
13
-2.71089
23
12.8525
33
32.3202
0
3DFACE
8
dchrfab
62
17
10
-2.71089
20
12.8525
30
32.3202
11
-14.5745
21
0.988909
31
32.3202
12
-13.7086
22
-0.209376
32
25.7442
13
-13.7086
23
-0.209376
33
25.7442
0
3DFACE
8
dchrfab
62
17
10
-14.5745
20
0.988909
30
32.3202
11
-2.71089
21
12.8525
31
32.3202
12
-5.75353
22
10.3478
32
38.2617
13
-5.75353
23
10.3478
33
38.2617
0
3DFACE
8
dchrfab
62
17
10
-5.75353
20
10.3478
30
38.2617
11
-12.0698
21
4.03155
31
38.2617
12
-14.5745
22
0.988909
32
32.3202
13
-14.5745
23
0.988909
33
32.3202
0
3DFACE
8
dchrfab
62
17
10
-3.10127
20
11.9347
30
18.2384
11
-3.26871
21
14.7333
31
25.1357
12
-1.50372
22
12.9683
32
25.6128
13
-1.50372
23
12.9683
33
25.6128
0
3DFACE
8
dchrfab
62
17
10
-1.50372
20
12.9683
30
25.6128
11
-1.19979
21
10.0332
31
18.4663
12
-3.10127
22
11.9347
32
18.2384
13
-3.10127
23
11.9347
33
18.2384
0
3DFACE
8
dchrfab
62
17
10
-3.26871
20
14.7333
30
25.1357
11
-4.28345
21
15.4156
31
31.7271
12
-2.70079
22
13.833
32
32.1811
13
-2.70079
23
13.833
33
32.1811
0
3DFACE
8
dchrfab
62
17
10
-2.70079
20
13.833
30
32.1811
11
-1.50372
21
12.9683
31
25.6128
12
-3.26871
22
14.7333
32
25.1357
13
-3.26871
23
14.7333
33
25.1357
0
3DFACE
8
dchrfab
62
17
10
-4.28345
20
15.4156
30
31.7271
11
-7.04279
21
12.1802
31
38.2544
12
-5.98415
22
11.1216
32
38.7431
13
-5.98415
23
11.1216
33
38.7431
0
3DFACE
8
dchrfab
62
17
10
-5.98415
20
11.1216
30
38.7431
11
-2.70079
21
13.833
31
32.1811
12
-4.28345
22
15.4156
32
31.7271
13
-4.28345
23
15.4156
33
31.7271
0
3DFACE
8
dchrfab
62
17
10
-7.04279
20
12.1802
30
38.2544
11
-13.9022
21
5.32081
31
38.2544
12
-12.8435
22
4.26217
32
38.7431
13
-12.8435
23
4.26217
33
38.7431
0
3DFACE
8
dchrfab
62
17
10
-12.8435
20
4.26217
30
38.7431
11
-5.98415
21
11.1216
31
38.7431
12
-7.04279
22
12.1802
32
38.2544
13
-7.04279
23
12.1802
33
38.2544
0
3DFACE
8
dchrfab
62
17
10
-13.9022
20
5.32081
30
38.2544
11
-17.1376
21
2.56146
31
31.7271
12
-15.555
22
0.978811
32
32.1811
13
-15.555
23
0.978811
33
32.1811
0
3DFACE
8
dchrfab
62
17
10
-15.555
20
0.978811
30
32.1811
11
-12.8435
21
4.26217
31
38.7431
12
-13.9022
22
5.32081
32
38.2544
13
-13.9022
23
5.32081
33
38.2544
0
3DFACE
8
dchrfab
62
17
10
-17.1376
20
2.56146
30
31.7271
11
-16.4553
21
1.54673
31
25.1357
12
-14.6903
22
-0.218264
32
25.6128
13
-14.6903
23
-0.218264
33
25.6128
0
3DFACE
8
dchrfab
62
17
10
-14.6903
20
-0.218264
30
25.6128
11
-15.555
21
0.978811
31
32.1811
12
-17.1376
22
2.56146
32
31.7271
13
-17.1376
23
2.56146
33
31.7271
0
3DFACE
8
dchrfab
62
17
10
-16.4553
20
1.54673
30
25.1357
11
-13.6567
21
1.37929
31
18.2384
12
-11.7552
22
-0.522199
32
18.4663
13
-11.7552
23
-0.522199
33
18.4663
0
3DFACE
8
dchrfab
62
17
10
-11.7552
20
-0.522199
30
18.4663
11
-14.6903
21
-0.218264
31
25.6128
12
-16.4553
22
1.54673
32
25.1357
13
-16.4553
23
1.54673
33
25.1357
0
3DFACE
8
dchrfab
62
17
10
0.294422
20
-13.2638
30
15.7117
11
-4.40041
21
-12.618
31
15.3164
12
10.896
22
2.67841
32
15.3164
13
10.896
23
2.67841
33
15.3164
0
3DFACE
8
dchrfab
62
17
10
10.896
20
2.67841
30
15.3164
11
11.5418
21
-2.01642
31
15.7117
12
0.294422
22
-13.2638
32
15.7117
13
0.294422
23
-13.2638
33
15.7117
0
3DFACE
8
dchrfab
62
17
10
-4.40041
20
-12.618
30
15.3164
11
-13.365
21
-3.65346
31
15.3164
12
1.93147
22
11.643
32
15.3164
13
1.93147
23
11.643
33
15.3164
0
3DFACE
8
dchrfab
62
17
10
1.93147
20
11.643
30
15.3164
11
10.896
21
2.67841
31
15.3164
12
-4.40041
22
-12.618
32
15.3164
13
-4.40041
23
-12.618
33
15.3164
0
3DFACE
8
dchrfab
62
17
10
-13.365
20
-3.65346
30
15.3164
11
-14.0107
21
1.04137
31
15.632
12
-2.76336
22
12.2888
32
15.632
13
-2.76336
23
12.2888
33
15.632
0
3DFACE
8
dchrfab
62
17
10
-2.76336
20
12.2888
30
15.632
11
1.93147
21
11.643
31
15.3164
12
-13.365
22
-3.65346
32
15.3164
13
-13.365
23
-3.65346
33
15.3164
0
3DFACE
8
dchrfab
62
17
10
0.118996
20
-12.736
30
18.2344
11
11.014
21
-1.841
31
18.2344
12
10.5425
22
2.32485
32
18.5776
13
10.5425
23
2.32485
33
18.5776
0
3DFACE
8
dchrfab
62
17
10
10.5425
20
2.32485
30
18.5776
11
-4.04685
21
-12.2645
31
18.5776
12
0.118996
22
-12.736
32
18.2344
13
0.118996
23
-12.736
33
18.2344
0
3DFACE
8
dchrfab
62
17
10
-4.04685
20
-12.2645
30
18.5776
11
10.5425
21
2.32485
31
18.5776
12
1.57791
22
11.2894
32
18.5776
13
1.57791
23
11.2894
33
18.5776
0
3DFACE
8
dchrfab
62
17
10
1.57791
20
11.2894
30
18.5776
11
-13.0114
21
-3.29991
31
18.5776
12
-4.04685
22
-12.2645
32
18.5776
13
-4.04685
23
-12.2645
33
18.5776
0
3DFACE
8
dchrfab
62
17
10
-13.0114
20
-3.29991
30
18.5776
11
1.57791
21
11.2894
31
18.5776
12
-2.58703
22
11.7604
32
18.3037
13
-2.58703
23
11.7604
33
18.3037
0
3DFACE
8
dchrfab
62
17
10
-2.58703
20
11.7604
30
18.3037
11
-13.4824
21
0.865037
31
18.3037
12
-13.0114
22
-3.29991
32
18.5776
13
-13.0114
23
-3.29991
33
18.5776
0
3DFACE
8
dchrfab
62
17
10
0.294422
20
-13.2638
30
15.7117
11
11.5418
21
-2.01642
31
15.7117
12
11.5418
22
-2.01642
32
17.6823
13
11.5418
23
-2.01642
33
17.6823
0
3DFACE
8
dchrfab
62
17
10
11.5418
20
-2.01642
30
17.6823
11
0.294422
21
-13.2638
31
17.6823
12
0.294422
22
-13.2638
32
15.7117
13
0.294422
23
-13.2638
33
15.7117
0
3DFACE
8
dchrfab
62
17
10
11.5418
20
-2.01642
30
15.7117
11
10.896
21
2.67841
31
15.3164
12
10.896
22
2.67841
32
18.0776
13
10.896
23
2.67841
33
18.0776
0
3DFACE
8
dchrfab
62
17
10
10.896
20
2.67841
30
18.0776
11
11.5418
21
-2.01642
31
17.6823
12
11.5418
22
-2.01642
32
15.7117
13
11.5418
23
-2.01642
33
15.7117
0
3DFACE
8
dchrfab
62
17
10
10.896
20
2.67841
30
15.3164
11
1.93147
21
11.643
31
15.3164
12
1.93147
22
11.643
32
18.0776
13
1.93147
23
11.643
33
18.0776
0
3DFACE
8
dchrfab
62
17
10
1.93147
20
11.643
30
18.0776
11
10.896
21
2.67841
31
18.0776
12
10.896
22
2.67841
32
15.3164
13
10.896
23
2.67841
33
15.3164
0
3DFACE
8
dchrfab
62
17
10
1.93147
20
11.643
30
15.3164
11
-2.76336
21
12.2888
31
15.632
12
-2.76336
22
12.2888
32
17.762
13
-2.76336
23
12.2888
33
17.762
0
3DFACE
8
dchrfab
62
17
10
-2.76336
20
12.2888
30
17.762
11
1.93147
21
11.643
31
18.0776
12
1.93147
22
11.643
32
15.3164
13
1.93147
23
11.643
33
15.3164
0
3DFACE
8
dchrfab
62
17
10
-2.76336
20
12.2888
30
15.632
11
-14.0107
21
1.04137
31
15.632
12
-14.0107
22
1.04136
32
17.762
13
-14.0107
23
1.04136
33
17.762
0
3DFACE
8
dchrfab
62
17
10
-14.0107
20
1.04136
30
17.762
11
-2.76336
21
12.2888
31
17.762
12
-2.76336
22
12.2888
32
15.632
13
-2.76336
23
12.2888
33
15.632
0
3DFACE
8
dchrfab
62
17
10
-14.0107
20
1.04137
30
15.632
11
-13.365
21
-3.65346
31
15.3164
12
-13.365
22
-3.65346
32
18.0776
13
-13.365
23
-3.65346
33
18.0776
0
3DFACE
8
dchrfab
62
17
10
-13.365
20
-3.65346
30
18.0776
11
-14.0107
21
1.04136
31
17.762
12
-14.0107
22
1.04137
32
15.632
13
-14.0107
23
1.04137
33
15.632
0
3DFACE
8
dchrfab
62
17
10
-13.365
20
-3.65346
30
15.3164
11
-4.40041
21
-12.618
31
15.3164
12
-4.40041
22
-12.618
32
18.0776
13
-4.40041
23
-12.618
33
18.0776
0
3DFACE
8
dchrfab
62
17
10
-4.40041
20
-12.618
30
18.0776
11
-13.365
21
-3.65346
31
18.0776
12
-13.365
22
-3.65346
32
15.3164
13
-13.365
23
-3.65346
33
15.3164
0
3DFACE
8
dchrfab
62
17
10
-4.40041
20
-12.618
30
15.3164
11
0.294422
21
-13.2638
31
15.7117
12
0.294422
22
-13.2638
32
17.6823
13
0.294422
23
-13.2638
33
17.6823
0
3DFACE
8
dchrfab
62
17
10
0.294422
20
-13.2638
30
17.6823
11
-4.40041
21
-12.618
31
18.0776
12
-4.40041
22
-12.618
32
15.3164
13
-4.40041
23
-12.618
33
15.3164
0
3DFACE
8
dchrfab
62
17
10
0.118996
20
-12.736
30
18.2344
11
0.294422
21
-13.2638
31
17.6823
12
11.014
22
-1.841
32
18.2344
13
11.014
23
-1.841
33
18.2344
0
3DFACE
8
dchrfab
62
17
10
11.5418
20
-2.01642
30
17.6823
11
11.014
21
-1.841
31
18.2344
12
0.294422
22
-13.2638
32
17.6823
13
0.294422
23
-13.2638
33
17.6823
0
3DFACE
8
dchrfab
62
17
10
11.014
20
-1.841
30
18.2344
11
11.5418
21
-2.01642
31
17.6823
12
10.5425
22
2.32485
32
18.5776
13
10.5425
23
2.32485
33
18.5776
0
3DFACE
8
dchrfab
62
17
10
10.896
20
2.67841
30
18.0776
11
10.5425
21
2.32485
31
18.5776
12
11.5418
22
-2.01642
32
17.6823
13
11.5418
23
-2.01642
33
17.6823
0
3DFACE
8
dchrfab
62
17
10
0.294422
20
-13.2638
30
17.6823
11
0.118996
21
-12.736
31
18.2344
12
-4.40041
22
-12.618
32
18.0776
13
-4.40041
23
-12.618
33
18.0776
0
3DFACE
8
dchrfab
62
17
10
-4.04685
20
-12.2645
30
18.5776
11
-4.40041
21
-12.618
31
18.0776
12
0.118996
22
-12.736
32
18.2344
13
0.118996
23
-12.736
33
18.2344
0
3DFACE
8
dchrfab
62
17
10
10.5425
20
2.32485
30
18.5776
11
10.896
21
2.67841
31
18.0776
12
1.57791
22
11.2894
32
18.5776
13
1.57791
23
11.2894
33
18.5776
0
3DFACE
8
dchrfab
62
17
10
1.93147
20
11.643
30
18.0776
11
1.57791
21
11.2894
31
18.5776
12
10.896
22
2.67841
32
18.0776
13
10.896
23
2.67841
33
18.0776
0
3DFACE
8
dchrfab
62
17
10
-4.40041
20
-12.618
30
18.0776
11
-4.04685
21
-12.2645
31
18.5776
12
-13.365
22
-3.65346
32
18.0776
13
-13.365
23
-3.65346
33
18.0776
0
3DFACE
8
dchrfab
62
17
10
-13.0114
20
-3.29991
30
18.5776
11
-13.365
21
-3.65346
31
18.0776
12
-4.04685
22
-12.2645
32
18.5776
13
-4.04685
23
-12.2645
33
18.5776
0
3DFACE
8
dchrfab
62
17
10
1.57791
20
11.2894
30
18.5776
11
1.93147
21
11.643
31
18.0776
12
-2.58703
22
11.7604
32
18.3037
13
-2.58703
23
11.7604
33
18.3037
0
3DFACE
8
dchrfab
62
17
10
-2.76336
20
12.2888
30
17.762
11
-2.58703
21
11.7604
31
18.3037
12
1.93147
22
11.643
32
18.0776
13
1.93147
23
11.643
33
18.0776
0
3DFACE
8
dchrfab
62
17
10
-14.0107
20
1.04136
30
17.762
11
-13.4824
21
0.865037
31
18.3037
12
-2.76336
22
12.2888
32
17.762
13
-2.76336
23
12.2888
33
17.762
0
3DFACE
8
dchrfab
62
17
10
-2.58703
20
11.7604
30
18.3037
11
-2.76336
21
12.2888
31
17.762
12
-13.4824
22
0.865037
32
18.3037
13
-13.4824
23
0.865037
33
18.3037
0
3DFACE
8
dchrfab
62
17
10
-13.365
20
-3.65346
30
18.0776
11
-13.0114
21
-3.29991
31
18.5776
12
-14.0107
22
1.04136
32
17.762
13
-14.0107
23
1.04136
33
17.762
0
3DFACE
8
dchrfab
62
17
10
-13.4824
20
0.865037
30
18.3037
11
-14.0107
21
1.04136
31
17.762
12
-13.0114
22
-3.29991
32
18.5776
13
-13.0114
23
-3.29991
33
18.5776
0
3DFACE
8
dchrfab
62
17
10
-1.20413
20
9.01825
30
18.5269
11
-1.19979
21
10.0332
31
18.4663
12
-1.51261
22
11.9867
32
25.7442
13
-1.51261
23
11.9867
33
25.7442
0
3DFACE
8
dchrfab
62
17
10
-1.50372
20
12.9683
30
25.6128
11
-1.51261
21
11.9867
31
25.7442
12
-1.19979
22
10.0332
32
18.4663
13
-1.19979
23
10.0332
33
18.4663
0
3DFACE
8
dchrfab
62
17
10
-11.7552
20
-0.522199
30
18.4663
11
-10.7402
21
-0.517859
31
18.5269
12
-14.6903
22
-0.218264
32
25.6128
13
-14.6903
23
-0.218264
33
25.6128
0
3DFACE
8
dchrfab
62
17
10
-13.7086
20
-0.209376
30
25.7442
11
-14.6903
21
-0.218264
31
25.6128
12
-10.7402
22
-0.517859
32
18.5269
13
-10.7402
23
-0.517859
33
18.5269
0
3DFACE
8
dchrfab
62
17
10
-1.51261
20
11.9867
30
25.7442
11
-1.50372
21
12.9683
31
25.6128
12
-2.71089
22
12.8525
32
32.3202
13
-2.71089
23
12.8525
33
32.3202
0
3DFACE
8
dchrfab
62
17
10
-2.70079
20
13.833
30
32.1811
11
-2.71089
21
12.8525
31
32.3202
12
-1.50372
22
12.9683
32
25.6128
13
-1.50372
23
12.9683
33
25.6128
0
3DFACE
8
dchrfab
62
17
10
-14.6903
20
-0.218264
30
25.6128
11
-13.7086
21
-0.209376
31
25.7442
12
-15.555
22
0.978811
32
32.1811
13
-15.555
23
0.978811
33
32.1811
0
3DFACE
8
dchrfab
62
17
10
-14.5745
20
0.988909
30
32.3202
11
-15.555
21
0.978811
31
32.1811
12
-13.7086
22
-0.209376
32
25.7442
13
-13.7086
23
-0.209376
33
25.7442
0
3DFACE
8
dchrfab
62
17
10
-2.71089
20
12.8525
30
32.3202
11
-2.70079
21
13.833
31
32.1811
12
-5.75353
22
10.3478
32
38.2617
13
-5.75353
23
10.3478
33
38.2617
0
3DFACE
8
dchrfab
62
17
10
-5.98415
20
11.1216
30
38.7431
11
-5.75353
21
10.3478
31
38.2617
12
-2.70079
22
13.833
32
32.1811
13
-2.70079
23
13.833
33
32.1811
0
3DFACE
8
dchrfab
62
17
10
-12.8435
20
4.26217
30
38.7431
11
-12.0698
21
4.03155
31
38.2617
12
-5.98415
22
11.1216
32
38.7431
13
-5.98415
23
11.1216
33
38.7431
0
3DFACE
8
dchrfab
62
17
10
-5.75353
20
10.3478
30
38.2617
11
-5.98415
21
11.1216
31
38.7431
12
-12.0698
22
4.03155
32
38.2617
13
-12.0698
23
4.03155
33
38.2617
0
3DFACE
8
dchrfab
62
17
10
-15.555
20
0.978811
30
32.1811
11
-14.5745
21
0.988909
31
32.3202
12
-12.8435
22
4.26217
32
38.7431
13
-12.8435
23
4.26217
33
38.7431
0
3DFACE
8
dchrfab
62
17
10
-12.0698
20
4.03155
30
38.2617
11
-12.8435
21
4.26217
31
38.7431
12
-14.5745
22
0.988909
32
32.3202
13
-14.5745
23
0.988909
33
32.3202
0
3DFACE
8
dchrsilv
62
251
10
6.12016
20
6.86259
30
18.5276
11
4.39157
21
8.59119
31
18.5276
12
4.65637
22
8.85598
32
18.5302
13
4.65637
23
8.85598
33
18.5302
0
3DFACE
8
dchrsilv
62
251
10
4.65637
20
8.85598
30
18.5302
11
6.38496
21
7.12739
31
18.5302
12
6.12016
22
6.86259
32
18.5276
13
6.12016
23
6.86259
33
18.5276
0
3DFACE
8
dchrsilv
62
251
10
6.12016
20
6.86259
30
18.5276
11
6.38496
21
7.12739
31
18.5302
12
7.82327
22
6.78525
32
24.2675
13
7.82327
23
6.78525
33
24.2675
0
3DFACE
8
dchrsilv
62
251
10
7.82327
20
6.78525
30
24.2675
11
7.55848
21
6.52045
31
24.275
12
6.12016
22
6.86259
32
18.5276
13
6.12016
23
6.86259
33
18.5276
0
3DFACE
8
dchrsilv
62
251
10
6.38496
20
7.12739
30
18.5302
11
4.65637
21
8.85598
31
18.5302
12
4.31422
22
10.2943
32
24.2675
13
4.31422
23
10.2943
33
24.2675
0
3DFACE
8
dchrsilv
62
251
10
4.31422
20
10.2943
30
24.2675
11
7.82327
21
6.78525
31
24.2675
12
6.38496
22
7.12739
32
18.5302
13
6.38496
23
7.12739
33
18.5302
0
3DFACE
8
dchrsilv
62
251
10
4.65637
20
8.85598
30
18.5302
11
4.39157
21
8.59119
31
18.5276
12
4.04943
22
10.0295
32
24.275
13
4.04943
23
10.0295
33
24.275
0
3DFACE
8
dchrsilv
62
251
10
4.04943
20
10.0295
30
24.275
11
4.31422
21
10.2943
31
24.2675
12
4.65637
22
8.85598
32
18.5302
13
4.65637
23
8.85598
33
18.5302
0
3DFACE
8
dchrsilv
62
251
10
4.39157
20
8.59119
30
18.5276
11
6.12016
21
6.86259
31
18.5276
12
7.55848
22
6.52045
32
24.275
13
7.55848
23
6.52045
33
24.275
0
3DFACE
8
dchrsilv
62
251
10
7.55848
20
6.52045
30
24.275
11
4.04943
21
10.0295
31
24.275
12
4.39157
22
8.59119
32
18.5276
13
4.39157
23
8.59119
33
18.5276
0
3DFACE
8
dchrsilv
62
251
10
-8.59562
20
-7.8532
30
18.5276
11
-10.589
21
-6.38941
31
18.5302
12
-10.3242
22
-6.12461
32
18.5276
13
-10.3242
23
-6.12461
33
18.5276
0
3DFACE
8
dchrsilv
62
251
10
-10.589
20
-6.38941
30
18.5302
11
-8.59562
21
-7.8532
31
18.5276
12
-8.86042
22
-8.118
32
18.5302
13
-8.86042
23
-8.118
33
18.5302
0
3DFACE
8
dchrsilv
62
251
10
-8.59562
20
-7.8532
30
18.5276
11
-8.51828
21
-9.55631
31
24.2675
12
-8.86042
22
-8.118
32
18.5302
13
-8.86042
23
-8.118
33
18.5302
0
3DFACE
8
dchrsilv
62
251
10
-8.51828
20
-9.55631
30
24.2675
11
-8.59562
21
-7.8532
31
18.5276
12
-8.25348
22
-9.29151
32
24.275
13
-8.25348
23
-9.29151
33
24.275
0
3DFACE
8
dchrsilv
62
251
10
-8.86042
20
-8.118
30
18.5302
11
-12.0273
21
-6.04726
31
24.2675
12
-10.589
22
-6.38941
32
18.5302
13
-10.589
23
-6.38941
33
18.5302
0
3DFACE
8
dchrsilv
62
251
10
-12.0273
20
-6.04726
30
24.2675
11
-8.86042
21
-8.118
31
18.5302
12
-8.51828
22
-9.55631
32
24.2675
13
-8.51828
23
-9.55631
33
24.2675
0
3DFACE
8
dchrsilv
62
251
10
-10.589
20
-6.38941
30
18.5302
11
-11.7625
21
-5.78247
31
24.275
12
-10.3242
22
-6.12461
32
18.5276
13
-10.3242
23
-6.12461
33
18.5276
0
3DFACE
8
dchrsilv
62
251
10
-11.7625
20
-5.78247
30
24.275
11
-10.589
21
-6.38941
31
18.5302
12
-12.0273
22
-6.04726
32
24.2675
13
-12.0273
23
-6.04726
33
24.2675
0
3DFACE
8
dchrsilv
62
251
10
-10.3242
20
-6.12461
30
18.5276
11
-8.25348
21
-9.29151
31
24.275
12
-8.59562
22
-7.8532
32
18.5276
13
-8.59562
23
-7.8532
33
18.5276
0
3DFACE
8
dchrsilv
62
251
10
-8.25348
20
-9.29151
30
24.275
11
-10.3242
21
-6.12461
31
18.5276
12
-11.7625
22
-5.78247
32
24.275
13
-11.7625
23
-5.78247
33
24.275
0
ENDSEC
0
EOF
